<svg width="959" height="582" viewBox="0 0 959 582" fill="none" xmlns="http://www.w3.org/2000/svg">
<path d="M657 295.672C633.5 283.5 513.534 295.672 368 295.672C222.466 295.672 148 280.5 126 295.672C154.617 369.383 257.16 467 387.923 467C518.686 467 589.035 398.07 657 295.672Z" fill="#EA8C55"/>
<path d="M585.696 300.862C559.701 445.048 479.265 426.817 442.296 399.678C427.271 423.513 526.991 466.942 578.729 485.677C691.465 499.605 809.769 389.077 854.829 332.072C920.865 209.605 877.818 124.298 848.04 96.9534C830.572 124.664 801.388 145.283 788.979 152.128C655.61 149.294 597.887 250.103 585.696 300.862Z" fill="#EA8C55"/>
<path d="M649.5 462.5C633.5 476.894 505.469 446.139 468.5 419C453.476 442.835 526.992 466.942 578.73 485.677C691.466 499.605 809.77 389.077 854.83 332.072C920.866 209.605 877.818 124.298 848.04 96.9533C830.573 124.664 867 229.5 862 254C804.5 399.678 712.5 405.822 649.5 462.5Z" fill="#E38752"/>
<path d="M885.5 250.5C903.5 157 861.167 106.833 848 97C814.4 149.4 729 154 707.5 165H764L731.5 202L782 184.5L777.5 234.5L824 196V221L848 213V257.5L876.5 206L885.5 250.5Z" fill="#FBE9DE"/>
<path d="M183.637 442.946C154.227 495.654 110.08 448.299 91.6823 418.033C-11.0198 379.094 25.9248 346.779 57.2349 335.49C17.5638 272.107 64.6947 269.024 93.219 275.405C97.7763 206.436 138.426 237.188 158.181 261.185C202.487 203.579 217.586 277.698 219.597 321.958L246.847 348.239C270.688 382.329 238.338 409.134 219.183 418.274C196.739 422.368 186.134 436.428 183.637 442.946Z" fill="#E57C3E"/>
<path d="M195.168 333.802C105.384 284.664 101.551 354.294 110.858 395.251C127.28 470.275 170.139 433.8 189.515 406.185C257.369 379.457 221.556 346.793 195.168 333.802Z" fill="#B26030"/>
<ellipse cx="63.3662" cy="368.892" rx="27.4087" ry="17.7916" transform="rotate(29.9365 63.3662 368.892)" fill="#B26030"/>
<ellipse cx="79.233" cy="305.079" rx="27.4087" ry="17.7916" transform="rotate(46.5493 79.233 305.079)" fill="#B26030"/>
<ellipse cx="127.478" cy="270.7" rx="27.4087" ry="17.7916" transform="rotate(66.216 127.478 270.7)" fill="#B26030"/>
<ellipse cx="188.325" cy="281.134" rx="27.4087" ry="17.7916" transform="rotate(77.0443 188.325 281.134)" fill="#B26030"/>
<path d="M486.919 440.422C427.446 430.123 457.513 372.787 479.98 345.406C482.718 235.604 525.442 259.765 546.462 285.571C593.135 227.151 611.649 270.603 615.072 299.631C681.66 281.095 666.102 329.634 649.999 356.221C719.026 378.954 654.087 417.742 612.989 434.294L597.213 468.709C572.94 502.493 536.936 480.843 521.969 465.795C510.674 445.972 493.896 440.62 486.919 440.422Z" fill="#E57C3E"/>
<path d="M593.725 415.165C610.363 314.175 543.392 333.614 507.826 355.957C442.472 396.293 491.08 424.657 523.553 433.797C571.24 488.974 590.204 444.366 593.725 415.165Z" fill="#B26030"/>
<ellipse cx="516.974" cy="302.416" rx="27.4087" ry="17.7916" transform="rotate(100.601 516.974 302.416)" fill="#B26030"/>
<ellipse cx="582.441" cy="296.259" rx="27.4087" ry="17.7916" transform="rotate(117.214 582.441 296.259)" fill="#B26030"/>
<ellipse cx="630.855" cy="330.399" rx="27.4087" ry="17.7916" transform="rotate(136.88 630.855 330.399)" fill="#B26030"/>
<ellipse cx="641.156" cy="391.269" rx="27.4087" ry="17.7916" transform="rotate(147.708 641.156 391.269)" fill="#B26030"/>
</svg>
