<svg width="798" height="632" viewBox="0 0 798 632" fill="none" xmlns="http://www.w3.org/2000/svg">
<path d="M741.282 582.927C773.943 500.293 695.07 466.545 651.551 460L524 529.5C531.485 583.451 560.422 599.825 578 592C582.083 636.732 644.321 635.142 666.435 623.902C704.54 638.585 732.21 602.703 741.282 582.927Z" fill="#EA8C55"/>
<path d="M666.435 624.402C704.54 639.085 732.21 603.203 741.282 583.427C744.632 574.952 727.884 588.721 704.741 596.587C699.431 598.392 693.766 598.668 688.159 598.548C672.902 598.222 657.702 600.266 641.615 599.952C632.438 599.773 623.831 595.966 616.384 590.601C597.366 576.899 570.433 559.139 558.975 548.5L544.598 535.009C541.698 531.17 538.709 527.611 534.998 526L524 530C531.485 583.951 560.422 600.325 578 592.5C582.083 637.232 644.321 635.642 666.435 624.402Z" fill="#B26030"/>
<path d="M81.3212 552.777C58.8017 495.788 113.185 472.514 143.191 468L225.5 521C220.339 558.208 194.309 571.126 182.19 565.729C179.375 596.579 148.176 588.788 132.928 581.036C106.655 591.162 87.5765 566.416 81.3212 552.777Z" fill="#F1F1F1"/>
<path d="M54.7175 582.927C22.0568 500.293 100.93 466.545 144.449 460L272 529.5C264.515 583.451 235.578 599.825 218 592C213.917 636.732 151.679 635.142 129.565 623.902C91.4605 638.585 63.7898 602.703 54.7175 582.927Z" fill="#EA8C55"/>
<path d="M129.274 624.402C91.17 639.085 63.4993 603.203 54.427 583.427C51.0773 574.952 67.825 588.721 90.9685 596.587C96.2788 598.392 101.943 598.668 107.551 598.548C122.807 598.222 138.007 600.266 154.095 599.952C163.272 599.773 171.879 595.966 179.326 590.601C198.344 576.899 225.276 559.139 236.734 548.5L251.111 535.009C254.012 531.17 257.001 527.611 260.711 526L271.71 530C264.225 583.951 235.287 600.325 217.71 592.5C213.627 637.232 151.388 635.642 129.274 624.402Z" fill="#B26030"/>
<path d="M728 361C728 467.039 572.582 530 389.5 530C206.418 530 60 467.039 60 361C96 268.5 225 146 389.5 146C554 146 642.5 232.5 728 361Z" fill="#EA8C55"/>
<path d="M140 356C120.4 366.8 38.5 372.5 0 374C8.8 395.2 25.6667 403.5 33 405L0 419C18 419 94.5 475.5 121.5 502.5C143.1 524.1 317.167 535.5 401.5 538.5C403 523.5 405.1 492.6 401.5 489C397 484.5 345 471 322.5 419C300 367 264 338 234.5 338C205 338 164.5 342.5 140 356Z" fill="#FBE9DE"/>
<path d="M657.488 356C677.088 366.8 758.988 372.5 797.488 374C788.688 395.2 771.821 403.5 764.488 405L797.488 419C779.488 419 702.988 475.5 675.988 502.5C654.388 524.1 480.321 535.5 395.988 538.5C394.488 523.5 392.388 492.6 395.988 489C400.488 484.5 452.488 471 474.988 419C497.488 367 533.488 338 562.988 338C592.488 338 632.988 342.5 657.488 356Z" fill="#FBE9DE"/>
<path d="M696.5 455.5C707.5 447 728 434.5 760.5 419C769 414.5 772.5 414.5 781 412L797.488 419C779.488 419 702.988 475.5 675.988 502.5C654.388 524.1 521 532 435.5 536.5C441.5 527.5 455.952 526.158 461 525.5C472.5 524 532.092 521.766 564.5 517C581.5 514.5 606 510 628 502.5C655.922 492.981 689.226 461.121 696.5 455.5Z" fill="#F9E1D3"/>
<path d="M100.988 455.5C89.9878 447 69.4878 434.5 36.9878 419C28.4878 414.5 24.9878 414.5 16.4878 412L0 419C18 419 94.5 475.5 121.5 502.5C143.1 524.1 276.488 532 361.988 536.5C355.988 527.5 341.536 526.158 336.488 525.5C324.988 524 265.396 521.766 232.988 517C215.988 514.5 191.488 510 169.488 502.5C141.566 492.981 108.262 461.121 100.988 455.5Z" fill="#F9E1D3"/>
<path d="M321.065 168C258.665 33.6 208.398 0 191.065 0C131.865 5.6 122.565 186.667 128.565 274.5L321.065 168Z" fill="#EA8C55"/>
<path d="M472 168C534.4 33.6 584.667 0 602 0C661.2 5.6 670.5 186.667 664.5 274.5L472 168Z" fill="#EA8C55"/>
<path d="M563 23.9999C577 10.4999 591 -8.39233e-05 601.997 0C617.498 1.49992 631 14.9999 641.5 41.9999L563 23.9999Z" fill="#CD713B"/>
<path d="M230 24C216 10.5 202.5 -8.39233e-05 191.503 0C176.002 1.49992 162.5 14 152 41L230 24Z" fill="#CD713B"/>
<path d="M169.438 231.777C191.438 210.977 252.271 183.11 279.938 171.777C264.438 147.277 229.438 84.277 194.438 95.277C166.438 104.077 166.104 189.944 169.438 231.777Z" fill="white"/>
<path d="M279.727 171.777C262.834 178.697 258.097 180.791 256.97 181.373C256.98 181.415 256.99 181.458 257 181.5C257 181.5 256.251 181.744 256.97 181.373C237.931 101.003 171.512 103.496 194.227 95.277C229.227 84.277 264.227 147.277 279.727 171.777Z" fill="#EA8C55" fill-opacity="0.15"/>
<path d="M623.5 231.777C601.5 210.977 540.667 183.11 513 171.777C528.5 147.277 563.5 84.277 598.5 95.277C626.5 104.077 626.833 189.944 623.5 231.777Z" fill="white"/>
<path d="M513 171.777C529.893 178.697 534.63 180.791 535.757 181.373C535.747 181.415 535.737 181.458 535.727 181.5C535.727 181.5 536.476 181.744 535.757 181.373C554.796 101.003 621.215 103.496 598.5 95.277C563.5 84.277 528.5 147.277 513 171.777Z" fill="#EA8C55" fill-opacity="0.15"/>
<circle cx="234.5" cy="402.5" r="19.5" fill="#560505"/>
<circle cx="228.5" cy="396.5" r="6.5" fill="white"/>
<circle cx="549.5" cy="402.5" r="19.5" fill="#560505"/>
<circle cx="546.5" cy="396.5" r="6.5" fill="white"/>
<path d="M404.868 498.637C398.223 504.97 387.75 504.883 381.21 498.442L359.555 477.111C348.721 466.44 356.277 448 371.484 448H415.521C430.864 448 438.356 466.721 427.249 477.306L404.868 498.637Z" fill="#560505"/>
<path d="M368 513.5C380.5 517.667 411.2 521 434 501C426.667 518.167 403.2 544.7 368 513.5Z" fill="#560505" stroke="#560505"/>
</svg>
